ffmpeg started on 2026-01-20 at 19:03:28
Report written to "D:\Convert\FFMetrics\reports\psnr_report-6.txt"
Log level: 32
Command line:
ffmpeg -hide_banner -nostdin -r 24000/1001 -i "F:\\Convert\\files\\[DC] Make Heroine ga Oosugiru - 07_Telegram_HEVC(221).mkv" -r 24000/1001 -i "F:\\Convert\\files\\[DC] Make Heroine ga Oosugiru - 07_Telegram.mp4" -lavfi "[0:v]settb=AVTB,setpts=PTS-STARTPTS,format=pix_fmts=yuv420p10le,fps=24000/1001,scale=1920:1080:flags=lanczos:param0=3:out_range=limited:out_color_matrix=bt709:out_chroma_loc=left,setsar=1/1,setdar=(1920/1080)*(1/1),colorspace=format=yuv420p10:range=tv:primaries=bt709:trc=bt709:space=bt709:fast=0[main];[1:v]settb=AVTB,setpts=PTS-STARTPTS,format=pix_fmts=yuv420p,fps=24000/1001,scale=1920:1080:flags=lanczos:param0=3:out_range=limited:out_color_matrix=bt709:out_chroma_loc=left,setsar=1.000,setdar=1.778,colorspace=format=yuv420p:range=tv:primaries=bt709:trc=bt709:space=bt709:fast=0[ref];[main][ref]psnr=eof_action=endall:stats_file='D\\:/Convert/FFMetrics/logs/psnr_logfile-6.txt'" -f null -
Input #0, matroska,webm, from 'F:\Convert\files\[DC] Make Heroine ga Oosugiru - 07_Telegram_HEVC(221).mkv':
  Metadata:
    COMPATIBLE_BRANDS: isomiso2avc1mp41
    MAJOR_BRAND     : isom
    MINOR_VERSION   : 512
    ENCODER         : Lavf61.7.100
  Duration: 00:24:06.79, start: -0.021000, bitrate: 954 kb/s
  Stream #0:0: Video: hevc (Main 10), yuv420p10le(tv, bt709, progressive), 1920x1080 [SAR 1:1 DAR 16:9], 23.98 fps, 23.98 tbr, 1k tbn (default)
      Metadata:
        HANDLER_NAME    : VideoHandler
        VENDOR_ID       : [0][0][0][0]
        ENCODER         : Lavc61.19.100 libx265
        BPS             : 757303
        DURATION        : 00:24:06.569708333
        NUMBER_OF_FRAMES: 34683
        NUMBER_OF_BYTES : 136936426
        _STATISTICS_WRITING_APP: mkvpropedit v94.0 ('Initiate') 64-bit
        _STATISTICS_WRITING_DATE_UTC: 2026-01-20 15:14:42
        _STATISTICS_TAGS: BPS DURATION NUMBER_OF_FRAMES NUMBER_OF_BYTES
  Stream #0:1: Audio: aac (LC), 48000 Hz, stereo, fltp (default)
      Metadata:
        HANDLER_NAME    : SoundHandler
        VENDOR_ID       : [0][0][0][0]
        ENCODER         : Lavc61.19.100 aac
        BPS             : 193194
        DURATION        : 00:24:06.784000000
        NUMBER_OF_FRAMES: 67819
        NUMBER_OF_BYTES : 34938755
        _STATISTICS_WRITING_APP: mkvpropedit v94.0 ('Initiate') 64-bit
        _STATISTICS_WRITING_DATE_UTC: 2026-01-20 15:14:42
        _STATISTICS_TAGS: BPS DURATION NUMBER_OF_FRAMES NUMBER_OF_BYTES
Input #1, mov,mp4,m4a,3gp,3g2,mj2, from 'F:\Convert\files\[DC] Make Heroine ga Oosugiru - 07_Telegram.mp4':
  Metadata:
    major_brand     : isom
    minor_version   : 512
    compatible_brands: isomiso2avc1mp41
    encoder         : Lavf60.16.100
  Duration: 00:24:06.74, start: 0.000000, bitrate: 3764 kb/s
  Stream #1:0[0x1](und): Video: h264 (High) (avc1 / 0x31637661), yuv420p(tv, bt709, progressive), 1920x1080 [SAR 1:1 DAR 16:9], 3616 kb/s, 23.98 fps, 23.98 tbr, 24k tbn (default)
      Metadata:
        handler_name    : VideoHandler
        vendor_id       : [0][0][0][0]
        encoder         : Lavc60.31.102 h264_qsv
  Stream #1:1[0x2](und): Audio: aac (HE-AACv2) (mp4a / 0x6134706D), 48000 Hz, stereo, fltp, 144 kb/s (default)
      Metadata:
        handler_name    : SoundHandler
        vendor_id       : [0][0][0][0]
Stream mapping:
  Stream #0:0 (hevc) -> settb:default
  Stream #1:0 (h264) -> settb:default
  psnr:default -> Stream #0:0 (wrapped_avframe)
  Stream #0:1 -> #0:1 (aac (native) -> pcm_s16le (native))
Output #0, null, to 'pipe:':
  Metadata:
    COMPATIBLE_BRANDS: isomiso2avc1mp41
    MAJOR_BRAND     : isom
    MINOR_VERSION   : 512
    encoder         : Lavf61.7.100
  Stream #0:0: Video: wrapped_avframe, yuv420p10le(tv, bt709, progressive), 1920x1080 [SAR 1:1 DAR 16:9], q=2-31, 200 kb/s, 23.98 fps, 23.98 tbn
      Metadata:
        encoder         : Lavc61.19.100 wrapped_avframe
  Stream #0:1: Audio: pcm_s16le, 48000 Hz, stereo, s16, 1536 kb/s (default)
      Metadata:
        HANDLER_NAME    : SoundHandler
        VENDOR_ID       : [0][0][0][0]
        _STATISTICS_TAGS: BPS DURATION NUMBER_OF_FRAMES NUMBER_OF_BYTES
        BPS             : 193194
        DURATION        : 00:24:06.784000000
        NUMBER_OF_FRAMES: 67819
        NUMBER_OF_BYTES : 34938755
        _STATISTICS_WRITING_APP: mkvpropedit v94.0 ('Initiate') 64-bit
        _STATISTICS_WRITING_DATE_UTC: 2026-01-20 15:14:42
        encoder         : Lavc61.19.100 pcm_s16le
frame=  138 fps=0.0 q=-0.0 size=N/A time=00:00:05.75 bitrate=N/A speed=11.1x    frame=  329 fps=320 q=-0.0 size=N/A time=00:00:13.72 bitrate=N/A speed=13.3x    frame=  543 fps=349 q=-0.0 size=N/A time=00:00:22.64 bitrate=N/A speed=14.6x    frame=  746 fps=361 q=-0.0 size=N/A time=00:00:31.11 bitrate=N/A speed=15.1x    frame=  920 fps=357 q=-0.0 size=N/A time=00:00:38.37 bitrate=N/A speed=14.9x    frame= 1073 fps=347 q=-0.0 size=N/A time=00:00:44.75 bitrate=N/A speed=14.5x    frame= 1228 fps=341 q=-0.0 size=N/A time=00:00:51.21 bitrate=N/A speed=14.2x    frame= 1406 fps=340 q=-0.0 size=N/A time=00:00:58.64 bitrate=N/A speed=14.2x    frame= 1547 fps=333 q=-0.0 size=N/A time=00:01:04.52 bitrate=N/A speed=13.9x    frame= 1708 fps=331 q=-0.0 size=N/A time=00:01:11.23 bitrate=N/A speed=13.8x    frame= 1879 fps=331 q=-0.0 size=N/A time=00:01:18.36 bitrate=N/A speed=13.8x    frame= 2044 fps=330 q=-0.0 size=N/A time=00:01:25.25 bitrate=N/A speed=13.8x    frame= 2159 fps=321 q=-0.0 size=N/A time=00:01:30.04 bitrate=N/A speed=13.4x    frame= 2320 fps=321 q=-0.0 size=N/A time=00:01:36.76 bitrate=N/A speed=13.4x    frame= 2462 fps=318 q=-0.0 size=N/A time=00:01:42.68 bitrate=N/A speed=13.3x    frame= 2605 fps=315 q=-0.0 size=N/A time=00:01:48.65 bitrate=N/A speed=13.1x    frame= 2782 fps=317 q=-0.0 size=N/A time=00:01:56.03 bitrate=N/A speed=13.2x    frame= 2952 fps=318 q=-0.0 size=N/A time=00:02:03.12 bitrate=N/A speed=13.2x    frame= 3151 fps=321 q=-0.0 size=N/A time=00:02:11.42 bitrate=N/A speed=13.4x    frame= 3354 fps=325 q=-0.0 size=N/A time=00:02:19.88 bitrate=N/A speed=13.5x    frame= 3551 fps=328 q=-0.0 size=N/A time=00:02:28.10 bitrate=N/A speed=13.7x    frame= 3754 fps=330 q=-0.0 size=N/A time=00:02:36.57 bitrate=N/A speed=13.8x    frame= 3948 fps=332 q=-0.0 size=N/A time=00:02:44.66 bitrate=N/A speed=13.9x    frame= 4142 fps=334 q=-0.0 size=N/A time=00:02:52.75 bitrate=N/A speed=13.9x    frame= 4349 fps=337 q=-0.0 size=N/A time=00:03:01.38 bitrate=N/A speed=  14x    frame= 4537 fps=338 q=-0.0 size=N/A time=00:03:09.23 bitrate=N/A speed=14.1x    frame= 4739 fps=340 q=-0.0 size=N/A time=00:03:17.65 bitrate=N/A speed=14.2x    frame= 4942 fps=342 q=-0.0 size=N/A time=00:03:26.12 bitrate=N/A speed=14.3x    frame= 5139 fps=343 q=-0.0 size=N/A time=00:03:34.33 bitrate=N/A speed=14.3x    frame= 5328 fps=344 q=-0.0 size=N/A time=00:03:42.22 bitrate=N/A speed=14.4x    frame= 5529 fps=346 q=-0.0 size=N/A time=00:03:50.60 bitrate=N/A speed=14.4x    frame= 5726 fps=347 q=-0.0 size=N/A time=00:03:58.82 bitrate=N/A speed=14.5x    frame= 5928 fps=348 q=-0.0 size=N/A time=00:04:07.24 bitrate=N/A speed=14.5x    frame= 6118 fps=349 q=-0.0 size=N/A time=00:04:15.17 bitrate=N/A speed=14.5x    frame= 6318 fps=350 q=-0.0 size=N/A time=00:04:23.51 bitrate=N/A speed=14.6x    frame= 6515 fps=351 q=-0.0 size=N/A time=00:04:31.72 bitrate=N/A speed=14.6x    frame= 6712 fps=352 q=-0.0 size=N/A time=00:04:39.94 bitrate=N/A speed=14.7x    frame= 6907 fps=352 q=-0.0 size=N/A time=00:04:48.07 bitrate=N/A speed=14.7x    frame= 7097 fps=353 q=-0.0 size=N/A time=00:04:56.00 bitrate=N/A speed=14.7x    frame= 7300 fps=354 q=-0.0 size=N/A time=00:05:04.47 bitrate=N/A speed=14.7x    frame= 7486 fps=354 q=-0.0 size=N/A time=00:05:12.22 bitrate=N/A speed=14.8x    frame= 7673 fps=354 q=-0.0 size=N/A time=00:05:20.02 bitrate=N/A speed=14.8x    frame= 7864 fps=354 q=-0.0 size=N/A time=00:05:27.99 bitrate=N/A speed=14.8x    frame= 8050 fps=355 q=-0.0 size=N/A time=00:05:35.75 bitrate=N/A speed=14.8x    frame= 8248 fps=355 q=-0.0 size=N/A time=00:05:44.01 bitrate=N/A speed=14.8x    frame= 8443 fps=356 q=-0.0 size=N/A time=00:05:52.14 bitrate=N/A speed=14.8x    frame= 8632 fps=356 q=-0.0 size=N/A time=00:06:00.02 bitrate=N/A speed=14.8x    frame= 8828 fps=357 q=-0.0 size=N/A time=00:06:08.20 bitrate=N/A speed=14.9x    frame= 9027 fps=357 q=-0.0 size=N/A time=00:06:16.50 bitrate=N/A speed=14.9x    frame= 9225 fps=358 q=-0.0 size=N/A time=00:06:24.75 bitrate=N/A speed=14.9x    frame= 9414 fps=358 q=-0.0 size=N/A time=00:06:32.64 bitrate=N/A speed=14.9x    frame= 9619 fps=358 q=-0.0 size=N/A time=00:06:41.19 bitrate=N/A speed=14.9x    frame= 9815 fps=359 q=-0.0 size=N/A time=00:06:49.36 bitrate=N/A speed=  15x    frame=10009 fps=359 q=-0.0 size=N/A time=00:06:57.45 bitrate=N/A speed=  15x    frame=10203 fps=359 q=-0.0 size=N/A time=00:07:05.55 bitrate=N/A speed=  15x    frame=10405 fps=360 q=-0.0 size=N/A time=00:07:13.97 bitrate=N/A speed=  15x    frame=10591 fps=360 q=-0.0 size=N/A time=00:07:21.73 bitrate=N/A speed=  15x    frame=10782 fps=360 q=-0.0 size=N/A time=00:07:29.69 bitrate=N/A speed=  15x    frame=10980 fps=360 q=-0.0 size=N/A time=00:07:37.95 bitrate=N/A speed=  15x    frame=11163 fps=360 q=-0.0 size=N/A time=00:07:45.59 bitrate=N/A speed=  15x    frame=11357 fps=361 q=-0.0 size=N/A time=00:07:53.68 bitrate=N/A speed=  15x    frame=11550 fps=361 q=-0.0 size=N/A time=00:08:01.73 bitrate=N/A speed=15.1x    frame=11750 fps=361 q=-0.0 size=N/A time=00:08:10.07 bitrate=N/A speed=15.1x    frame=11947 fps=362 q=-0.0 size=N/A time=00:08:18.28 bitrate=N/A speed=15.1x    frame=12141 fps=362 q=-0.0 size=N/A time=00:08:26.38 bitrate=N/A speed=15.1x    frame=12338 fps=362 q=-0.0 size=N/A time=00:08:34.59 bitrate=N/A speed=15.1x    frame=12533 fps=362 q=-0.0 size=N/A time=00:08:42.73 bitrate=N/A speed=15.1x    frame=12724 fps=363 q=-0.0 size=N/A time=00:08:50.69 bitrate=N/A speed=15.1x    frame=12923 fps=363 q=-0.0 size=N/A time=00:08:58.99 bitrate=N/A speed=15.1x    frame=13120 fps=363 q=-0.0 size=N/A time=00:09:07.21 bitrate=N/A speed=15.1x    frame=13306 fps=363 q=-0.0 size=N/A time=00:09:14.97 bitrate=N/A speed=15.1x    frame=13500 fps=363 q=-0.0 size=N/A time=00:09:23.06 bitrate=N/A speed=15.2x    frame=13704 fps=364 q=-0.0 size=N/A time=00:09:31.57 bitrate=N/A speed=15.2x    frame=13898 fps=364 q=-0.0 size=N/A time=00:09:39.66 bitrate=N/A speed=15.2x    frame=14086 fps=364 q=-0.0 size=N/A time=00:09:47.50 bitrate=N/A speed=15.2x    frame=14267 fps=364 q=-0.0 size=N/A time=00:09:55.05 bitrate=N/A speed=15.2x    frame=14462 fps=364 q=-0.0 size=N/A time=00:10:03.18 bitrate=N/A speed=15.2x    frame=14662 fps=364 q=-0.0 size=N/A time=00:10:11.52 bitrate=N/A speed=15.2x    frame=14854 fps=364 q=-0.0 size=N/A time=00:10:19.53 bitrate=N/A speed=15.2x    frame=15048 fps=364 q=-0.0 size=N/A time=00:10:27.62 bitrate=N/A speed=15.2x    frame=15206 fps=364 q=-0.0 size=N/A time=00:10:34.21 bitrate=N/A speed=15.2x    frame=15401 fps=364 q=-0.0 size=N/A time=00:10:42.35 bitrate=N/A speed=15.2x    frame=15595 fps=364 q=-0.0 size=N/A time=00:10:50.44 bitrate=N/A speed=15.2x    frame=15792 fps=364 q=-0.0 size=N/A time=00:10:58.65 bitrate=N/A speed=15.2x    frame=15987 fps=364 q=-0.0 size=N/A time=00:11:06.79 bitrate=N/A speed=15.2x    frame=16190 fps=365 q=-0.0 size=N/A time=00:11:15.25 bitrate=N/A speed=15.2x    frame=16385 fps=365 q=-0.0 size=N/A time=00:11:23.39 bitrate=N/A speed=15.2x    frame=16574 fps=365 q=-0.0 size=N/A time=00:11:31.27 bitrate=N/A speed=15.2x    frame=16768 fps=365 q=-0.0 size=N/A time=00:11:39.36 bitrate=N/A speed=15.2x    frame=16970 fps=365 q=-0.0 size=N/A time=00:11:47.79 bitrate=N/A speed=15.2x    frame=17169 fps=365 q=-0.0 size=N/A time=00:11:56.09 bitrate=N/A speed=15.2x    frame=17358 fps=365 q=-0.0 size=N/A time=00:12:03.97 bitrate=N/A speed=15.2x    frame=17544 fps=365 q=-0.0 size=N/A time=00:12:11.73 bitrate=N/A speed=15.2x    frame=17731 fps=365 q=-0.0 size=N/A time=00:12:19.53 bitrate=N/A speed=15.2x    frame=17917 fps=365 q=-0.0 size=N/A time=00:12:27.28 bitrate=N/A speed=15.2x    frame=18113 fps=365 q=-0.0 size=N/A time=00:12:35.46 bitrate=N/A speed=15.2x    frame=18294 fps=365 q=-0.0 size=N/A time=00:12:43.01 bitrate=N/A speed=15.2x    frame=18486 fps=365 q=-0.0 size=N/A time=00:12:51.02 bitrate=N/A speed=15.2x    frame=18684 fps=365 q=-0.0 size=N/A time=00:12:59.27 bitrate=N/A speed=15.2x    frame=18882 fps=366 q=-0.0 size=N/A time=00:13:07.53 bitrate=N/A speed=15.2x    frame=19075 fps=366 q=-0.0 size=N/A time=00:13:15.58 bitrate=N/A speed=15.3x    frame=19269 fps=366 q=-0.0 size=N/A time=00:13:23.67 bitrate=N/A speed=15.3x    frame=19471 fps=366 q=-0.0 size=N/A time=00:13:32.10 bitrate=N/A speed=15.3x    frame=19657 fps=366 q=-0.0 size=N/A time=00:13:39.86 bitrate=N/A speed=15.3x    frame=19857 fps=366 q=-0.0 size=N/A time=00:13:48.20 bitrate=N/A speed=15.3x    frame=20055 fps=366 q=-0.0 size=N/A time=00:13:56.46 bitrate=N/A speed=15.3x    frame=20254 fps=367 q=-0.0 size=N/A time=00:14:04.76 bitrate=N/A speed=15.3x    frame=20442 fps=367 q=-0.0 size=N/A time=00:14:12.60 bitrate=N/A speed=15.3x    frame=20624 fps=366 q=-0.0 size=N/A time=00:14:20.19 bitrate=N/A speed=15.3x    frame=20821 fps=367 q=-0.0 size=N/A time=00:14:28.40 bitrate=N/A speed=15.3x    frame=21020 fps=367 q=-0.0 size=N/A time=00:14:36.70 bitrate=N/A speed=15.3x    frame=21212 fps=367 q=-0.0 size=N/A time=00:14:44.71 bitrate=N/A speed=15.3x    frame=21410 fps=367 q=-0.0 size=N/A time=00:14:52.97 bitrate=N/A speed=15.3x    frame=21607 fps=367 q=-0.0 size=N/A time=00:15:01.19 bitrate=N/A speed=15.3x    frame=21801 fps=367 q=-0.0 size=N/A time=00:15:09.28 bitrate=N/A speed=15.3x    frame=21997 fps=367 q=-0.0 size=N/A time=00:15:17.45 bitrate=N/A speed=15.3x    frame=22192 fps=367 q=-0.0 size=N/A time=00:15:25.59 bitrate=N/A speed=15.3x    frame=22386 fps=367 q=-0.0 size=N/A time=00:15:33.68 bitrate=N/A speed=15.3x    frame=22596 fps=368 q=-0.0 size=N/A time=00:15:42.44 bitrate=N/A speed=15.3x    frame=22784 fps=368 q=-0.0 size=N/A time=00:15:50.28 bitrate=N/A speed=15.3x    frame=22971 fps=368 q=-0.0 size=N/A time=00:15:58.08 bitrate=N/A speed=15.3x    frame=23165 fps=368 q=-0.0 size=N/A time=00:16:06.17 bitrate=N/A speed=15.3x    frame=23369 fps=368 q=-0.0 size=N/A time=00:16:14.68 bitrate=N/A speed=15.3x    frame=23563 fps=368 q=-0.0 size=N/A time=00:16:22.77 bitrate=N/A speed=15.4x    frame=23761 fps=368 q=-0.0 size=N/A time=00:16:31.03 bitrate=N/A speed=15.4x    frame=23964 fps=368 q=-0.0 size=N/A time=00:16:39.49 bitrate=N/A speed=15.4x    frame=24158 fps=368 q=-0.0 size=N/A time=00:16:47.58 bitrate=N/A speed=15.4x    frame=24348 fps=368 q=-0.0 size=N/A time=00:16:55.51 bitrate=N/A speed=15.4x    frame=24545 fps=369 q=-0.0 size=N/A time=00:17:03.73 bitrate=N/A speed=15.4x    frame=24746 fps=369 q=-0.0 size=N/A time=00:17:12.11 bitrate=N/A speed=15.4x    frame=24941 fps=369 q=-0.0 size=N/A time=00:17:20.24 bitrate=N/A speed=15.4x    frame=25142 fps=369 q=-0.0 size=N/A time=00:17:28.63 bitrate=N/A speed=15.4x    frame=25339 fps=369 q=-0.0 size=N/A time=00:17:36.84 bitrate=N/A speed=15.4x    frame=25537 fps=369 q=-0.0 size=N/A time=00:17:45.10 bitrate=N/A speed=15.4x    frame=25729 fps=369 q=-0.0 size=N/A time=00:17:53.11 bitrate=N/A speed=15.4x    frame=25936 fps=369 q=-0.0 size=N/A time=00:18:01.74 bitrate=N/A speed=15.4x    frame=26126 fps=369 q=-0.0 size=N/A time=00:18:09.67 bitrate=N/A speed=15.4x    frame=26321 fps=370 q=-0.0 size=N/A time=00:18:17.80 bitrate=N/A speed=15.4x    frame=26524 fps=370 q=-0.0 size=N/A time=00:18:26.27 bitrate=N/A speed=15.4x    frame=26718 fps=370 q=-0.0 size=N/A time=00:18:34.36 bitrate=N/A speed=15.4x    frame=26911 fps=370 q=-0.0 size=N/A time=00:18:42.41 bitrate=N/A speed=15.4x    frame=27097 fps=370 q=-0.0 size=N/A time=00:18:50.17 bitrate=N/A speed=15.4x    frame=27278 fps=370 q=-0.0 size=N/A time=00:18:57.71 bitrate=N/A speed=15.4x    frame=27464 fps=370 q=-0.0 size=N/A time=00:19:05.47 bitrate=N/A speed=15.4x    frame=27654 fps=369 q=-0.0 size=N/A time=00:19:13.40 bitrate=N/A speed=15.4x    frame=27847 fps=369 q=-0.0 size=N/A time=00:19:21.45 bitrate=N/A speed=15.4x    frame=28035 fps=369 q=-0.0 size=N/A time=00:19:29.29 bitrate=N/A speed=15.4x    frame=28226 fps=370 q=-0.0 size=N/A time=00:19:37.25 bitrate=N/A speed=15.4x    frame=28424 fps=370 q=-0.0 size=N/A time=00:19:45.51 bitrate=N/A speed=15.4x    frame=28619 fps=370 q=-0.0 size=N/A time=00:19:53.65 bitrate=N/A speed=15.4x    frame=28795 fps=369 q=-0.0 size=N/A time=00:20:00.99 bitrate=N/A speed=15.4x    frame=28977 fps=369 q=-0.0 size=N/A time=00:20:08.58 bitrate=N/A speed=15.4x    frame=29155 fps=369 q=-0.0 size=N/A time=00:20:16.00 bitrate=N/A speed=15.4x    frame=29341 fps=369 q=-0.0 size=N/A time=00:20:23.76 bitrate=N/A speed=15.4x    frame=29513 fps=369 q=-0.0 size=N/A time=00:20:30.93 bitrate=N/A speed=15.4x    frame=29690 fps=369 q=-0.0 size=N/A time=00:20:38.32 bitrate=N/A speed=15.4x    frame=29867 fps=369 q=-0.0 size=N/A time=00:20:45.70 bitrate=N/A speed=15.4x    frame=30030 fps=368 q=-0.0 size=N/A time=00:20:52.50 bitrate=N/A speed=15.4x    frame=30224 fps=368 q=-0.0 size=N/A time=00:21:00.59 bitrate=N/A speed=15.4x    frame=30417 fps=368 q=-0.0 size=N/A time=00:21:08.64 bitrate=N/A speed=15.4x    frame=30609 fps=368 q=-0.0 size=N/A time=00:21:16.65 bitrate=N/A speed=15.4x    frame=30802 fps=368 q=-0.0 size=N/A time=00:21:24.70 bitrate=N/A speed=15.4x    frame=31000 fps=368 q=-0.0 size=N/A time=00:21:32.95 bitrate=N/A speed=15.4x    frame=31197 fps=369 q=-0.0 size=N/A time=00:21:41.17 bitrate=N/A speed=15.4x    frame=31384 fps=368 q=-0.0 size=N/A time=00:21:48.97 bitrate=N/A speed=15.4x    frame=31576 fps=368 q=-0.0 size=N/A time=00:21:56.98 bitrate=N/A speed=15.4x    frame=31767 fps=369 q=-0.0 size=N/A time=00:22:04.94 bitrate=N/A speed=15.4x    frame=31945 fps=368 q=-0.0 size=N/A time=00:22:12.37 bitrate=N/A speed=15.4x    frame=32141 fps=368 q=-0.0 size=N/A time=00:22:20.54 bitrate=N/A speed=15.4x    frame=32330 fps=368 q=-0.0 size=N/A time=00:22:28.43 bitrate=N/A speed=15.4x    frame=32529 fps=369 q=-0.0 size=N/A time=00:22:36.73 bitrate=N/A speed=15.4x    frame=32694 fps=368 q=-0.0 size=N/A time=00:22:43.61 bitrate=N/A speed=15.4x    frame=32847 fps=368 q=-0.0 size=N/A time=00:22:49.99 bitrate=N/A speed=15.3x    frame=33030 fps=368 q=-0.0 size=N/A time=00:22:57.62 bitrate=N/A speed=15.3x    frame=33209 fps=368 q=-0.0 size=N/A time=00:23:05.09 bitrate=N/A speed=15.3x    frame=33389 fps=368 q=-0.0 size=N/A time=00:23:12.59 bitrate=N/A speed=15.3x    frame=33549 fps=367 q=-0.0 size=N/A time=00:23:19.27 bitrate=N/A speed=15.3x    frame=33701 fps=367 q=-0.0 size=N/A time=00:23:25.61 bitrate=N/A speed=15.3x    frame=33831 fps=366 q=-0.0 size=N/A time=00:23:31.03 bitrate=N/A speed=15.3x    frame=33973 fps=366 q=-0.0 size=N/A time=00:23:36.95 bitrate=N/A speed=15.3x    frame=34135 fps=365 q=-0.0 size=N/A time=00:23:43.71 bitrate=N/A speed=15.2x    frame=34289 fps=365 q=-0.0 size=N/A time=00:23:50.13 bitrate=N/A speed=15.2x    frame=34422 fps=364 q=-0.0 size=N/A time=00:23:55.68 bitrate=N/A speed=15.2x    frame=34595 fps=364 q=-0.0 size=N/A time=00:24:02.89 bitrate=N/A speed=15.2x    [Parsed_psnr_16 @ 000002c04337ae80] PSNR y:48.631208 u:50.283965 v:50.305035 average:49.118118 min:37.709860 max:inf
[out#0/null @ 000002c035758e80] video:14903KiB audio:271276KiB subtitle:0KiB other streams:0KiB global headers:0KiB muxing overhead: unknown
frame=34683 fps=364 q=-0.0 Lsize=N/A time=00:24:06.57 bitrate=N/A speed=15.2x    
